<svg xmlns="http://www.w3.org/2000/svg" xmlns:xlink="http://www.w3.org/1999/xlink" width="500" zoomAndPan="magnify" viewBox="0 0 375 374.999991" height="500" preserveAspectRatio="xMidYMid meet" version="1.0"><defs><g/><clipPath id="68a8ef3c25"><path d="M 146 76.75 L 229 76.75 L 229 122 L 146 122 Z M 146 76.75 " clip-rule="nonzero"/></clipPath><clipPath id="c51041f4de"><path d="M 108.625 118 L 266.125 118 L 266.125 182 L 108.625 182 Z M 108.625 118 " clip-rule="nonzero"/></clipPath></defs><rect x="-37.5" width="450" fill="#ffffff" y="-37.499999" height="449.999989" fill-opacity="1"/><rect x="-37.5" width="450" fill="#4a7c59" y="-37.499999" height="449.999989" fill-opacity="1"/><path fill="#f9f9f9" d="M 192.542969 163.828125 C 191.078125 165.027344 188.9375 166.160156 187.4375 166.664062 L 185.984375 145.503906 C 186.410156 145.46875 186.839844 145.453125 187.277344 145.480469 C 188.265625 145.542969 189.207031 145.769531 190.082031 146.136719 C 190.957031 146.503906 191.765625 147.015625 192.492188 147.644531 C 193.28125 148.21875 193.898438 148.929688 194.375 149.671875 C 194.847656 150.414062 195.1875 151.195312 195.421875 151.917969 C 195.695312 152.652344 195.898438 153.425781 196.011719 154.230469 C 196.136719 155.035156 196.175781 155.867188 196.128906 156.71875 C 195.941406 159.660156 194.703125 162.050781 192.542969 163.828125 M 182.421875 166.917969 C 181.5625 166.789062 180.742188 166.535156 179.628906 166.230469 C 170.824219 162.308594 169.027344 155.898438 170.371094 149.613281 C 171.710938 143.320312 176.203125 137.160156 179.972656 133.734375 C 180.542969 133.277344 181.097656 132.832031 181.652344 132.390625 C 182.203125 131.953125 182.742188 131.519531 183.285156 131.089844 L 183.496094 134.640625 L 183.703125 138.195312 C 180.730469 139.050781 178.582031 140.953125 177.136719 142.78125 C 175.695312 144.609375 174.953125 146.359375 174.785156 146.90625 C 174.578125 147.554688 173.949219 148.988281 174.335938 152.121094 C 174.554688 154.691406 175.382812 159.121094 178.949219 162.761719 C 178.617188 161.976562 177.425781 159.167969 177.273438 158.292969 C 177.121094 157.414062 177.070312 156.496094 177.128906 155.554688 C 177.304688 152.609375 178.53125 150.015625 180.371094 148.1875 C 181.328125 147.238281 182.453125 146.503906 183.679688 146.035156 L 185.117188 166.976562 C 184.023438 167.074219 183.207031 167.042969 182.421875 166.917969 Z M 184.441406 110.472656 C 185.488281 104.019531 187.890625 100.070312 190.160156 97.777344 C 192.433594 95.484375 194.574219 94.84375 195.105469 95.023438 C 195.632812 95.199219 196.28125 96.273438 196.539062 98.25 C 196.789062 100.230469 196.664062 103.109375 195.648438 106.898438 C 193.9375 111.847656 191.222656 115.210938 188.9375 117.34375 C 186.648438 119.476562 184.746094 121.058594 184.746094 121.058594 C 184.746094 121.058594 184.167969 113.480469 184.441406 110.472656 Z M 198.847656 144.1875 C 196.253906 139.96875 191.40625 137.265625 185.785156 137.875 L 185.519531 133.671875 L 185.265625 129.472656 C 189.308594 126.113281 192.746094 122.765625 195.140625 118.15625 C 197.539062 113.546875 198.878906 107.671875 198.710938 99.261719 C 198.582031 93.957031 197.859375 90.835938 196.960938 89.015625 C 196.0625 87.195312 194.988281 86.671875 194.164062 86.5625 C 193.332031 86.449219 189.394531 87.933594 186.207031 93.0625 C 183.015625 98.195312 180.667969 107.597656 182.851562 122.074219 C 182.851562 122.074219 178.695312 124.855469 174.449219 129.5 C 170.207031 134.140625 165.785156 140.015625 165.316406 146.351562 C 165.316406 146.351562 164.417969 152.144531 166.453125 158.003906 C 168.496094 163.859375 173.472656 169.785156 185.238281 170.046875 C 185.46875 173.710938 185.4375 184.082031 185.332031 186.515625 C 185.238281 188.949219 185.15625 192.261719 183.910156 193.675781 C 183.105469 194.644531 181.066406 195.796875 177.867188 195.785156 C 178.0625 195.703125 179.558594 194.882812 180.84375 193.449219 C 182.136719 192.011719 183.222656 189.945312 182.597656 187.375 C 182.441406 186.632812 181.773438 185.207031 180.523438 184.105469 C 179.269531 182.996094 177.433594 182.210938 174.9375 182.746094 C 171.296875 183.535156 169.605469 186.4375 169.71875 189.542969 C 169.828125 192.644531 171.738281 195.957031 175.308594 197.570312 C 175.308594 197.570312 176.929688 198.476562 179.105469 198.613281 C 181.285156 198.757812 184.019531 198.125 186.242188 195.035156 C 189.054688 191.414062 187.871094 169.785156 187.871094 169.785156 C 187.871094 169.785156 189.816406 169.425781 193.050781 167.21875 C 195.8125 165.441406 198.933594 162.667969 200.34375 158.695312 C 201.78125 154.144531 201.441406 148.40625 198.847656 144.1875 Z M 198.847656 144.1875 " fill-opacity="1" fill-rule="evenodd"/><g clip-path="url(#68a8ef3c25)"><path fill="#f9f9f9" d="M 187.496094 76.792969 C 210.214844 76.792969 228.746094 95.320312 228.746094 118.039062 C 228.746094 119.109375 228.699219 120.164062 228.621094 121.21875 C 227.980469 99.105469 209.757812 81.273438 187.496094 81.273438 C 165.242188 81.273438 147.015625 99.105469 146.375 121.21875 C 146.292969 120.164062 146.246094 119.109375 146.246094 118.039062 C 146.246094 95.320312 164.78125 76.792969 187.496094 76.792969 " fill-opacity="1" fill-rule="evenodd"/></g><g clip-path="url(#c51041f4de)"><path fill="#f9f9f9" d="M 185.59375 132.957031 C 186.914062 125.148438 193.558594 122.410156 200.667969 122.269531 C 216.199219 121.964844 227.640625 133.652344 243.15625 130.621094 C 245.617188 144.921875 256.21875 157.960938 263.726562 163.304688 C 254.113281 152.25 241.761719 134.582031 246.253906 127.109375 C 228.613281 134 218.503906 118.648438 200.894531 118.773438 C 194.703125 118.820312 186.722656 121.085938 184.6875 126.277344 C 183.261719 121.3125 177.75 119.0625 171.707031 119.019531 C 154.101562 118.894531 146.375 134 128.746094 127.109375 C 133.230469 134.582031 120.878906 152.25 111.265625 163.304688 C 118.777344 157.960938 129.378906 144.921875 131.839844 130.621094 C 147.351562 133.652344 156.402344 122.207031 171.933594 122.515625 C 178.613281 122.648438 183.398438 125.628906 184.492188 132.957031 M 167.3125 164.871094 C 156.769531 161.277344 121.589844 177.78125 108.625 165.5 C 118.042969 181.144531 155.757812 162.699219 167.3125 164.871094 Z M 208.214844 164.511719 C 219.710938 160.789062 253.40625 177.78125 266.371094 165.5 C 256.953125 181.144531 220.507812 162.578125 208.214844 164.511719 Z M 185.851562 181.40625 C 176.789062 151.855469 123.082031 195.925781 108.746094 173.375 C 126.890625 189.953125 176.46875 148.8125 186.917969 177.328125 C 197.429688 148.9375 248.117188 189.945312 266.246094 173.375 C 251.910156 195.925781 197.203125 151.855469 188.0625 181.40625 Z M 185.851562 181.40625 " fill-opacity="1" fill-rule="evenodd"/></g><g fill="#f9f9f9" fill-opacity="1"><g transform="translate(103.82733, 236.589959)"><g><path d="M 1.296875 -13.765625 C 1.296875 -16.472656 1.878906 -18.890625 3.046875 -21.015625 C 4.222656 -23.140625 5.859375 -24.789062 7.953125 -25.96875 C 10.054688 -27.15625 12.4375 -27.75 15.09375 -27.75 C 18.351562 -27.75 21.140625 -26.890625 23.453125 -25.171875 C 25.773438 -23.453125 27.328125 -21.109375 28.109375 -18.140625 L 20.765625 -18.140625 C 20.210938 -19.285156 19.429688 -20.15625 18.421875 -20.75 C 17.421875 -21.351562 16.285156 -21.65625 15.015625 -21.65625 C 12.953125 -21.65625 11.28125 -20.9375 10 -19.5 C 8.726562 -18.070312 8.09375 -16.160156 8.09375 -13.765625 C 8.09375 -11.367188 8.726562 -9.453125 10 -8.015625 C 11.28125 -6.578125 12.953125 -5.859375 15.015625 -5.859375 C 16.285156 -5.859375 17.421875 -6.15625 18.421875 -6.75 C 19.429688 -7.351562 20.210938 -8.226562 20.765625 -9.375 L 28.109375 -9.375 C 27.328125 -6.40625 25.773438 -4.066406 23.453125 -2.359375 C 21.140625 -0.648438 18.351562 0.203125 15.09375 0.203125 C 12.4375 0.203125 10.054688 -0.390625 7.953125 -1.578125 C 5.859375 -2.765625 4.222656 -4.410156 3.046875 -6.515625 C 1.878906 -8.628906 1.296875 -11.046875 1.296875 -13.765625 Z M 1.296875 -13.765625 "/></g></g></g><g fill="#f9f9f9" fill-opacity="1"><g transform="translate(133.616756, 236.589959)"><g><path d="M 19.5 -4.84375 L 9.265625 -4.84375 L 7.625 0 L 0.625 0 L 10.5625 -27.4375 L 18.296875 -27.4375 L 28.21875 0 L 21.15625 0 Z M 17.78125 -10.015625 L 14.390625 -20.0625 L 11.03125 -10.015625 Z M 17.78125 -10.015625 "/></g></g></g><g fill="#f9f9f9" fill-opacity="1"><g transform="translate(162.428835, 236.589959)"><g><path d="M 26.96875 0 L 20.296875 0 L 9.109375 -16.921875 L 9.109375 0 L 2.421875 0 L 2.421875 -27.4375 L 9.109375 -27.4375 L 20.296875 -10.4375 L 20.296875 -27.4375 L 26.96875 -27.4375 Z M 26.96875 0 "/></g></g></g><g fill="#f9f9f9" fill-opacity="1"><g transform="translate(191.82732, 236.589959)"><g><path d="M 22.171875 -27.4375 L 22.171875 -22.09375 L 14.890625 -22.09375 L 14.890625 0 L 8.203125 0 L 8.203125 -22.09375 L 0.9375 -22.09375 L 0.9375 -27.4375 Z M 22.171875 -27.4375 "/></g></g></g><g fill="#f9f9f9" fill-opacity="1"><g transform="translate(214.931715, 236.589959)"><g><path d="M 15.40625 0.28125 C 12.820312 0.28125 10.453125 -0.316406 8.296875 -1.515625 C 6.148438 -2.722656 4.445312 -4.398438 3.1875 -6.546875 C 1.925781 -8.691406 1.296875 -11.109375 1.296875 -13.796875 C 1.296875 -16.484375 1.925781 -18.894531 3.1875 -21.03125 C 4.445312 -23.164062 6.148438 -24.832031 8.296875 -26.03125 C 10.453125 -27.226562 12.820312 -27.828125 15.40625 -27.828125 C 17.976562 -27.828125 20.335938 -27.226562 22.484375 -26.03125 C 24.640625 -24.832031 26.335938 -23.164062 27.578125 -21.03125 C 28.816406 -18.894531 29.4375 -16.484375 29.4375 -13.796875 C 29.4375 -11.109375 28.8125 -8.691406 27.5625 -6.546875 C 26.3125 -4.398438 24.613281 -2.722656 22.46875 -1.515625 C 20.332031 -0.316406 17.976562 0.28125 15.40625 0.28125 Z M 15.40625 -5.828125 C 17.59375 -5.828125 19.34375 -6.554688 20.65625 -8.015625 C 21.976562 -9.472656 22.640625 -11.398438 22.640625 -13.796875 C 22.640625 -16.222656 21.976562 -18.160156 20.65625 -19.609375 C 19.34375 -21.054688 17.59375 -21.78125 15.40625 -21.78125 C 13.1875 -21.78125 11.414062 -21.0625 10.09375 -19.625 C 8.78125 -18.1875 8.125 -16.242188 8.125 -13.796875 C 8.125 -11.378906 8.78125 -9.445312 10.09375 -8 C 11.414062 -6.550781 13.1875 -5.828125 15.40625 -5.828125 Z M 15.40625 -5.828125 "/></g></g></g><g fill="#f9f9f9" fill-opacity="1"><g transform="translate(245.659385, 236.589959)"><g><path d="M 16.421875 0 L 10.71875 -10.359375 L 9.109375 -10.359375 L 9.109375 0 L 2.421875 0 L 2.421875 -27.4375 L 13.640625 -27.4375 C 15.804688 -27.4375 17.648438 -27.054688 19.171875 -26.296875 C 20.703125 -25.546875 21.84375 -24.515625 22.59375 -23.203125 C 23.351562 -21.890625 23.734375 -20.421875 23.734375 -18.796875 C 23.734375 -16.972656 23.21875 -15.34375 22.1875 -13.90625 C 21.15625 -12.476562 19.632812 -11.46875 17.625 -10.875 L 23.96875 0 Z M 9.109375 -15.09375 L 13.25 -15.09375 C 14.476562 -15.09375 15.394531 -15.390625 16 -15.984375 C 16.613281 -16.585938 16.921875 -17.4375 16.921875 -18.53125 C 16.921875 -19.570312 16.613281 -20.390625 16 -20.984375 C 15.394531 -21.585938 14.476562 -21.890625 13.25 -21.890625 L 9.109375 -21.890625 Z M 9.109375 -15.09375 "/></g></g></g><g fill="#f9f9f9" fill-opacity="1"><g transform="translate(129.095294, 268.734196)"><g><path d="M 1.796875 -10.53125 C 1.796875 -12.632812 2.210938 -14.5 3.046875 -16.125 C 3.890625 -17.75 5.0625 -19.019531 6.5625 -19.9375 C 8.0625 -20.863281 9.753906 -21.328125 11.640625 -21.328125 C 14.097656 -21.328125 16.128906 -20.753906 17.734375 -19.609375 C 19.347656 -18.472656 20.523438 -16.894531 21.265625 -14.875 L 20.671875 -14.875 C 20.023438 -16.65625 18.929688 -18.085938 17.390625 -19.171875 C 15.859375 -20.253906 13.941406 -20.796875 11.640625 -20.796875 C 9.921875 -20.796875 8.359375 -20.378906 6.953125 -19.546875 C 5.554688 -18.710938 4.453125 -17.519531 3.640625 -15.96875 C 2.835938 -14.425781 2.4375 -12.613281 2.4375 -10.53125 C 2.4375 -8.46875 2.835938 -6.664062 3.640625 -5.125 C 4.453125 -3.582031 5.5625 -2.394531 6.96875 -1.5625 C 8.382812 -0.738281 9.941406 -0.328125 11.640625 -0.328125 C 13.941406 -0.328125 15.859375 -0.863281 17.390625 -1.9375 C 18.929688 -3.007812 20.023438 -4.429688 20.671875 -6.203125 L 21.265625 -6.203125 C 20.523438 -4.191406 19.347656 -2.617188 17.734375 -1.484375 C 16.128906 -0.359375 14.097656 0.203125 11.640625 0.203125 C 9.753906 0.203125 8.0625 -0.25 6.5625 -1.15625 C 5.0625 -2.0625 3.890625 -3.328125 3.046875 -4.953125 C 2.210938 -6.585938 1.796875 -8.445312 1.796875 -10.53125 Z M 1.796875 -10.53125 "/></g></g></g><g fill="#f9f9f9" fill-opacity="1"><g transform="translate(152.165266, 268.734196)"><g><path d="M 14.09375 0 L 8.453125 -9.203125 L 3.15625 -9.203125 L 3.15625 0 L 2.546875 0 L 2.546875 -21.125 L 7.828125 -21.125 C 10.148438 -21.125 11.875 -20.59375 13 -19.53125 C 14.132812 -18.46875 14.703125 -17.019531 14.703125 -15.1875 C 14.703125 -13.476562 14.21875 -12.113281 13.25 -11.09375 C 12.289062 -10.070312 10.925781 -9.460938 9.15625 -9.265625 L 14.84375 0 Z M 7.890625 -9.78125 C 9.953125 -9.78125 11.492188 -10.269531 12.515625 -11.25 C 13.546875 -12.226562 14.0625 -13.539062 14.0625 -15.1875 C 14.0625 -18.738281 11.984375 -20.515625 7.828125 -20.515625 L 3.15625 -20.515625 L 3.15625 -9.78125 Z M 7.890625 -9.78125 "/></g></g></g><g fill="#f9f9f9" fill-opacity="1"><g transform="translate(168.215249, 268.734196)"><g><path d="M 3.15625 -21.125 L 3.15625 0 L 2.546875 0 L 2.546875 -21.125 Z M 3.15625 -21.125 "/></g></g></g><g fill="#f9f9f9" fill-opacity="1"><g transform="translate(173.915241, 268.734196)"><g><path d="M 8.34375 0.203125 C 7 0.203125 5.832031 -0.0351562 4.84375 -0.515625 C 3.851562 -0.992188 3.085938 -1.625 2.546875 -2.40625 C 2.003906 -3.195312 1.6875 -4.054688 1.59375 -4.984375 L 2.1875 -4.984375 C 2.289062 -4.285156 2.546875 -3.582031 2.953125 -2.875 C 3.359375 -2.175781 4.003906 -1.578125 4.890625 -1.078125 C 5.785156 -0.578125 6.9375 -0.328125 8.34375 -0.328125 C 9.457031 -0.328125 10.441406 -0.539062 11.296875 -0.96875 C 12.160156 -1.40625 12.820312 -1.984375 13.28125 -2.703125 C 13.75 -3.421875 13.984375 -4.21875 13.984375 -5.09375 C 13.984375 -6.238281 13.722656 -7.144531 13.203125 -7.8125 C 12.679688 -8.476562 12.035156 -8.972656 11.265625 -9.296875 C 10.492188 -9.617188 9.457031 -9.953125 8.15625 -10.296875 C 6.800781 -10.648438 5.710938 -11.003906 4.890625 -11.359375 C 4.066406 -11.722656 3.367188 -12.28125 2.796875 -13.03125 C 2.234375 -13.78125 1.953125 -14.796875 1.953125 -16.078125 C 1.953125 -16.992188 2.207031 -17.859375 2.71875 -18.671875 C 3.226562 -19.484375 3.957031 -20.128906 4.90625 -20.609375 C 5.851562 -21.085938 6.9375 -21.328125 8.15625 -21.328125 C 9.394531 -21.328125 10.460938 -21.109375 11.359375 -20.671875 C 12.265625 -20.234375 12.972656 -19.675781 13.484375 -19 C 13.992188 -18.332031 14.328125 -17.628906 14.484375 -16.890625 L 13.890625 -16.890625 C 13.753906 -17.472656 13.460938 -18.0625 13.015625 -18.65625 C 12.578125 -19.257812 11.945312 -19.765625 11.125 -20.171875 C 10.3125 -20.585938 9.320312 -20.796875 8.15625 -20.796875 C 7.132812 -20.796875 6.195312 -20.597656 5.34375 -20.203125 C 4.5 -19.816406 3.820312 -19.265625 3.3125 -18.546875 C 2.800781 -17.835938 2.546875 -17.015625 2.546875 -16.078125 C 2.546875 -14.921875 2.8125 -13.992188 3.34375 -13.296875 C 3.875 -12.609375 4.53125 -12.097656 5.3125 -11.765625 C 6.09375 -11.441406 7.132812 -11.109375 8.4375 -10.765625 C 9.789062 -10.410156 10.875 -10.054688 11.6875 -9.703125 C 12.5 -9.359375 13.179688 -8.816406 13.734375 -8.078125 C 14.296875 -7.347656 14.578125 -6.351562 14.578125 -5.09375 C 14.578125 -4.21875 14.34375 -3.367188 13.875 -2.546875 C 13.40625 -1.722656 12.695312 -1.054688 11.75 -0.546875 C 10.8125 -0.046875 9.675781 0.203125 8.34375 0.203125 Z M 8.34375 0.203125 "/></g></g></g><g fill="#f9f9f9" fill-opacity="1"><g transform="translate(189.995231, 268.734196)"><g><path d="M 13.5 -21.125 L 13.5 -20.578125 L 7.34375 -20.578125 L 7.34375 0 L 6.75 0 L 6.75 -20.578125 L 0.59375 -20.578125 L 0.59375 -21.125 Z M 13.5 -21.125 "/></g></g></g><g fill="#f9f9f9" fill-opacity="1"><g transform="translate(204.095221, 268.734196)"><g><path d="M 14.25 -5.8125 L 3.8125 -5.8125 L 1.59375 0 L 0.90625 0 L 8.734375 -20.484375 L 9.328125 -20.484375 L 17.125 0 L 16.4375 0 Z M 14.046875 -6.359375 L 9.03125 -19.53125 L 4.015625 -6.359375 Z M 6.15625 -22.421875 C 6.226562 -23.035156 6.421875 -23.515625 6.734375 -23.859375 C 7.046875 -24.210938 7.453125 -24.390625 7.953125 -24.390625 C 8.296875 -24.390625 8.585938 -24.320312 8.828125 -24.1875 C 9.066406 -24.0625 9.335938 -23.867188 9.640625 -23.609375 C 9.910156 -23.367188 10.160156 -23.1875 10.390625 -23.0625 C 10.628906 -22.945312 10.894531 -22.890625 11.1875 -22.890625 C 11.53125 -22.890625 11.820312 -23.015625 12.0625 -23.265625 C 12.300781 -23.515625 12.453125 -23.863281 12.515625 -24.3125 L 13.046875 -24.3125 C 13.015625 -23.769531 12.820312 -23.304688 12.46875 -22.921875 C 12.113281 -22.546875 11.6875 -22.359375 11.1875 -22.359375 C 10.832031 -22.359375 10.523438 -22.425781 10.265625 -22.5625 C 10.003906 -22.707031 9.710938 -22.910156 9.390625 -23.171875 C 9.085938 -23.410156 8.835938 -23.582031 8.640625 -23.6875 C 8.441406 -23.800781 8.210938 -23.859375 7.953125 -23.859375 C 7.234375 -23.859375 6.8125 -23.378906 6.6875 -22.421875 Z M 6.15625 -22.421875 "/></g></g></g><g fill="#f9f9f9" fill-opacity="1"><g transform="translate(222.125203, 268.734196)"><g><path d="M 11.875 0.234375 C 9.9375 0.234375 8.203125 -0.21875 6.671875 -1.125 C 5.140625 -2.03125 3.941406 -3.300781 3.078125 -4.9375 C 2.222656 -6.582031 1.796875 -8.445312 1.796875 -10.53125 C 1.796875 -12.613281 2.222656 -14.472656 3.078125 -16.109375 C 3.941406 -17.742188 5.140625 -19.015625 6.671875 -19.921875 C 8.203125 -20.835938 9.9375 -21.296875 11.875 -21.296875 C 13.820312 -21.296875 15.554688 -20.835938 17.078125 -19.921875 C 18.609375 -19.015625 19.800781 -17.742188 20.65625 -16.109375 C 21.519531 -14.472656 21.953125 -12.613281 21.953125 -10.53125 C 21.953125 -8.445312 21.519531 -6.582031 20.65625 -4.9375 C 19.800781 -3.300781 18.609375 -2.03125 17.078125 -1.125 C 15.554688 -0.21875 13.820312 0.234375 11.875 0.234375 Z M 11.875 -0.296875 C 13.632812 -0.296875 15.234375 -0.710938 16.671875 -1.546875 C 18.117188 -2.378906 19.253906 -3.566406 20.078125 -5.109375 C 20.910156 -6.660156 21.328125 -8.46875 21.328125 -10.53125 C 21.328125 -12.59375 20.910156 -14.394531 20.078125 -15.9375 C 19.253906 -17.488281 18.117188 -18.679688 16.671875 -19.515625 C 15.234375 -20.347656 13.632812 -20.765625 11.875 -20.765625 C 10.113281 -20.765625 8.515625 -20.347656 7.078125 -19.515625 C 5.640625 -18.679688 4.503906 -17.488281 3.671875 -15.9375 C 2.847656 -14.394531 2.4375 -12.59375 2.4375 -10.53125 C 2.4375 -8.46875 2.847656 -6.660156 3.671875 -5.109375 C 4.503906 -3.566406 5.640625 -2.378906 7.078125 -1.546875 C 8.515625 -0.710938 10.113281 -0.296875 11.875 -0.296875 Z M 11.875 -0.296875 "/></g></g></g></svg>