<svg xmlns="http://www.w3.org/2000/svg" xmlns:xlink="http://www.w3.org/1999/xlink" width="500" zoomAndPan="magnify" viewBox="0 0 375 374.999991" height="500" preserveAspectRatio="xMidYMid meet" version="1.0"><defs><g/><clipPath id="6aa9ee744b"><path d="M 146 76.75 L 229 76.75 L 229 122 L 146 122 Z M 146 76.75 " clip-rule="nonzero"/></clipPath><clipPath id="378fe0beff"><path d="M 108.625 118 L 266.125 118 L 266.125 182 L 108.625 182 Z M 108.625 118 " clip-rule="nonzero"/></clipPath></defs><rect x="-37.5" width="450" fill="#ffffff" y="-37.499999" height="449.999989" fill-opacity="1"/><rect x="-37.5" width="450" fill="#f9f9f9" y="-37.499999" height="449.999989" fill-opacity="1"/><path fill="#4a7c59" d="M 192.542969 163.828125 C 191.078125 165.027344 188.9375 166.160156 187.4375 166.664062 L 185.984375 145.503906 C 186.410156 145.46875 186.839844 145.453125 187.277344 145.480469 C 188.265625 145.542969 189.207031 145.769531 190.082031 146.136719 C 190.957031 146.503906 191.765625 147.015625 192.492188 147.644531 C 193.28125 148.21875 193.898438 148.929688 194.375 149.671875 C 194.847656 150.414062 195.1875 151.195312 195.421875 151.917969 C 195.695312 152.652344 195.898438 153.425781 196.011719 154.230469 C 196.136719 155.035156 196.175781 155.867188 196.128906 156.71875 C 195.941406 159.660156 194.703125 162.050781 192.542969 163.828125 M 182.421875 166.917969 C 181.5625 166.789062 180.742188 166.535156 179.628906 166.230469 C 170.824219 162.308594 169.027344 155.898438 170.371094 149.613281 C 171.710938 143.320312 176.203125 137.160156 179.972656 133.734375 C 180.542969 133.277344 181.097656 132.832031 181.652344 132.390625 C 182.203125 131.953125 182.742188 131.519531 183.285156 131.089844 L 183.496094 134.640625 L 183.703125 138.195312 C 180.730469 139.050781 178.582031 140.953125 177.136719 142.78125 C 175.695312 144.609375 174.953125 146.359375 174.785156 146.90625 C 174.578125 147.554688 173.949219 148.988281 174.335938 152.121094 C 174.554688 154.691406 175.382812 159.121094 178.949219 162.761719 C 178.617188 161.976562 177.425781 159.167969 177.273438 158.292969 C 177.121094 157.414062 177.070312 156.496094 177.128906 155.554688 C 177.304688 152.609375 178.53125 150.015625 180.371094 148.1875 C 181.328125 147.238281 182.453125 146.503906 183.679688 146.035156 L 185.117188 166.976562 C 184.023438 167.074219 183.207031 167.042969 182.421875 166.917969 Z M 184.441406 110.472656 C 185.488281 104.019531 187.890625 100.070312 190.160156 97.777344 C 192.433594 95.484375 194.574219 94.84375 195.105469 95.023438 C 195.632812 95.199219 196.28125 96.273438 196.539062 98.25 C 196.789062 100.230469 196.664062 103.109375 195.648438 106.898438 C 193.9375 111.847656 191.222656 115.210938 188.9375 117.34375 C 186.648438 119.476562 184.746094 121.058594 184.746094 121.058594 C 184.746094 121.058594 184.167969 113.480469 184.441406 110.472656 Z M 198.847656 144.1875 C 196.253906 139.96875 191.40625 137.265625 185.785156 137.875 L 185.519531 133.671875 L 185.265625 129.472656 C 189.308594 126.113281 192.746094 122.765625 195.140625 118.15625 C 197.539062 113.546875 198.878906 107.671875 198.710938 99.261719 C 198.582031 93.957031 197.859375 90.835938 196.960938 89.015625 C 196.0625 87.195312 194.988281 86.671875 194.164062 86.5625 C 193.332031 86.449219 189.394531 87.933594 186.207031 93.0625 C 183.015625 98.195312 180.667969 107.597656 182.851562 122.074219 C 182.851562 122.074219 178.695312 124.855469 174.449219 129.5 C 170.207031 134.140625 165.785156 140.015625 165.316406 146.351562 C 165.316406 146.351562 164.417969 152.144531 166.453125 158.003906 C 168.496094 163.859375 173.472656 169.785156 185.238281 170.046875 C 185.46875 173.710938 185.4375 184.082031 185.332031 186.515625 C 185.238281 188.949219 185.15625 192.261719 183.910156 193.675781 C 183.105469 194.644531 181.066406 195.796875 177.867188 195.785156 C 178.0625 195.703125 179.558594 194.882812 180.84375 193.449219 C 182.136719 192.011719 183.222656 189.945312 182.597656 187.375 C 182.441406 186.632812 181.773438 185.207031 180.523438 184.105469 C 179.269531 182.996094 177.433594 182.210938 174.9375 182.746094 C 171.296875 183.535156 169.605469 186.4375 169.71875 189.542969 C 169.828125 192.644531 171.738281 195.957031 175.308594 197.570312 C 175.308594 197.570312 176.929688 198.476562 179.105469 198.613281 C 181.285156 198.757812 184.019531 198.125 186.242188 195.035156 C 189.054688 191.414062 187.871094 169.785156 187.871094 169.785156 C 187.871094 169.785156 189.816406 169.425781 193.050781 167.21875 C 195.8125 165.441406 198.933594 162.667969 200.34375 158.695312 C 201.78125 154.144531 201.441406 148.40625 198.847656 144.1875 Z M 198.847656 144.1875 " fill-opacity="1" fill-rule="evenodd"/><g clip-path="url(#6aa9ee744b)"><path fill="#4a7c59" d="M 187.496094 76.792969 C 210.214844 76.792969 228.746094 95.320312 228.746094 118.039062 C 228.746094 119.109375 228.699219 120.164062 228.621094 121.21875 C 227.980469 99.105469 209.757812 81.273438 187.496094 81.273438 C 165.242188 81.273438 147.015625 99.105469 146.375 121.21875 C 146.292969 120.164062 146.246094 119.109375 146.246094 118.039062 C 146.246094 95.320312 164.78125 76.792969 187.496094 76.792969 " fill-opacity="1" fill-rule="evenodd"/></g><g clip-path="url(#378fe0beff)"><path fill="#4a7c59" d="M 185.59375 132.957031 C 186.914062 125.148438 193.558594 122.410156 200.667969 122.269531 C 216.199219 121.964844 227.640625 133.652344 243.15625 130.621094 C 245.617188 144.921875 256.21875 157.960938 263.726562 163.304688 C 254.113281 152.25 241.761719 134.582031 246.253906 127.109375 C 228.613281 134 218.503906 118.648438 200.894531 118.773438 C 194.703125 118.820312 186.722656 121.085938 184.6875 126.277344 C 183.261719 121.3125 177.75 119.0625 171.707031 119.019531 C 154.101562 118.894531 146.375 134 128.746094 127.109375 C 133.230469 134.582031 120.878906 152.25 111.265625 163.304688 C 118.777344 157.960938 129.378906 144.921875 131.839844 130.621094 C 147.351562 133.652344 156.402344 122.207031 171.933594 122.515625 C 178.613281 122.648438 183.398438 125.628906 184.492188 132.957031 M 167.3125 164.871094 C 156.769531 161.277344 121.589844 177.78125 108.625 165.5 C 118.042969 181.144531 155.757812 162.699219 167.3125 164.871094 Z M 208.214844 164.511719 C 219.710938 160.789062 253.40625 177.78125 266.371094 165.5 C 256.953125 181.144531 220.507812 162.578125 208.214844 164.511719 Z M 185.851562 181.40625 C 176.789062 151.855469 123.082031 195.925781 108.746094 173.375 C 126.890625 189.953125 176.46875 148.8125 186.917969 177.328125 C 197.429688 148.9375 248.117188 189.945312 266.246094 173.375 C 251.910156 195.925781 197.203125 151.855469 188.0625 181.40625 Z M 185.851562 181.40625 " fill-opacity="1" fill-rule="evenodd"/></g><g fill="#4a7c59" fill-opacity="1"><g transform="translate(103.82733, 236.589959)"><g><path d="M 1.296875 -13.765625 C 1.296875 -16.472656 1.878906 -18.890625 3.046875 -21.015625 C 4.222656 -23.140625 5.859375 -24.789062 7.953125 -25.96875 C 10.054688 -27.15625 12.4375 -27.75 15.09375 -27.75 C 18.351562 -27.75 21.140625 -26.890625 23.453125 -25.171875 C 25.773438 -23.453125 27.328125 -21.109375 28.109375 -18.140625 L 20.765625 -18.140625 C 20.210938 -19.285156 19.429688 -20.15625 18.421875 -20.75 C 17.421875 -21.351562 16.285156 -21.65625 15.015625 -21.65625 C 12.953125 -21.65625 11.28125 -20.9375 10 -19.5 C 8.726562 -18.070312 8.09375 -16.160156 8.09375 -13.765625 C 8.09375 -11.367188 8.726562 -9.453125 10 -8.015625 C 11.28125 -6.578125 12.953125 -5.859375 15.015625 -5.859375 C 16.285156 -5.859375 17.421875 -6.15625 18.421875 -6.75 C 19.429688 -7.351562 20.210938 -8.226562 20.765625 -9.375 L 28.109375 -9.375 C 27.328125 -6.40625 25.773438 -4.066406 23.453125 -2.359375 C 21.140625 -0.648438 18.351562 0.203125 15.09375 0.203125 C 12.4375 0.203125 10.054688 -0.390625 7.953125 -1.578125 C 5.859375 -2.765625 4.222656 -4.410156 3.046875 -6.515625 C 1.878906 -8.628906 1.296875 -11.046875 1.296875 -13.765625 Z M 1.296875 -13.765625 "/></g></g></g><g fill="#4a7c59" fill-opacity="1"><g transform="translate(133.616756, 236.589959)"><g><path d="M 19.5 -4.84375 L 9.265625 -4.84375 L 7.625 0 L 0.625 0 L 10.5625 -27.4375 L 18.296875 -27.4375 L 28.21875 0 L 21.15625 0 Z M 17.78125 -10.015625 L 14.390625 -20.0625 L 11.03125 -10.015625 Z M 17.78125 -10.015625 "/></g></g></g><g fill="#4a7c59" fill-opacity="1"><g transform="translate(162.428835, 236.589959)"><g><path d="M 26.96875 0 L 20.296875 0 L 9.109375 -16.921875 L 9.109375 0 L 2.421875 0 L 2.421875 -27.4375 L 9.109375 -27.4375 L 20.296875 -10.4375 L 20.296875 -27.4375 L 26.96875 -27.4375 Z M 26.96875 0 "/></g></g></g><g fill="#4a7c59" fill-opacity="1"><g transform="translate(191.82732, 236.589959)"><g><path d="M 22.171875 -27.4375 L 22.171875 -22.09375 L 14.890625 -22.09375 L 14.890625 0 L 8.203125 0 L 8.203125 -22.09375 L 0.9375 -22.09375 L 0.9375 -27.4375 Z M 22.171875 -27.4375 "/></g></g></g><g fill="#4a7c59" fill-opacity="1"><g transform="translate(214.931715, 236.589959)"><g><path d="M 15.40625 0.28125 C 12.820312 0.28125 10.453125 -0.316406 8.296875 -1.515625 C 6.148438 -2.722656 4.445312 -4.398438 3.1875 -6.546875 C 1.925781 -8.691406 1.296875 -11.109375 1.296875 -13.796875 C 1.296875 -16.484375 1.925781 -18.894531 3.1875 -21.03125 C 4.445312 -23.164062 6.148438 -24.832031 8.296875 -26.03125 C 10.453125 -27.226562 12.820312 -27.828125 15.40625 -27.828125 C 17.976562 -27.828125 20.335938 -27.226562 22.484375 -26.03125 C 24.640625 -24.832031 26.335938 -23.164062 27.578125 -21.03125 C 28.816406 -18.894531 29.4375 -16.484375 29.4375 -13.796875 C 29.4375 -11.109375 28.8125 -8.691406 27.5625 -6.546875 C 26.3125 -4.398438 24.613281 -2.722656 22.46875 -1.515625 C 20.332031 -0.316406 17.976562 0.28125 15.40625 0.28125 Z M 15.40625 -5.828125 C 17.59375 -5.828125 19.34375 -6.554688 20.65625 -8.015625 C 21.976562 -9.472656 22.640625 -11.398438 22.640625 -13.796875 C 22.640625 -16.222656 21.976562 -18.160156 20.65625 -19.609375 C 19.34375 -21.054688 17.59375 -21.78125 15.40625 -21.78125 C 13.1875 -21.78125 11.414062 -21.0625 10.09375 -19.625 C 8.78125 -18.1875 8.125 -16.242188 8.125 -13.796875 C 8.125 -11.378906 8.78125 -9.445312 10.09375 -8 C 11.414062 -6.550781 13.1875 -5.828125 15.40625 -5.828125 Z M 15.40625 -5.828125 "/></g></g></g><g fill="#4a7c59" fill-opacity="1"><g transform="translate(245.659385, 236.589959)"><g><path d="M 16.421875 0 L 10.71875 -10.359375 L 9.109375 -10.359375 L 9.109375 0 L 2.421875 0 L 2.421875 -27.4375 L 13.640625 -27.4375 C 15.804688 -27.4375 17.648438 -27.054688 19.171875 -26.296875 C 20.703125 -25.546875 21.84375 -24.515625 22.59375 -23.203125 C 23.351562 -21.890625 23.734375 -20.421875 23.734375 -18.796875 C 23.734375 -16.972656 23.21875 -15.34375 22.1875 -13.90625 C 21.15625 -12.476562 19.632812 -11.46875 17.625 -10.875 L 23.96875 0 Z M 9.109375 -15.09375 L 13.25 -15.09375 C 14.476562 -15.09375 15.394531 -15.390625 16 -15.984375 C 16.613281 -16.585938 16.921875 -17.4375 16.921875 -18.53125 C 16.921875 -19.570312 16.613281 -20.390625 16 -20.984375 C 15.394531 -21.585938 14.476562 -21.890625 13.25 -21.890625 L 9.109375 -21.890625 Z M 9.109375 -15.09375 "/></g></g></g><g fill="#4a7c59" fill-opacity="1"><g transform="translate(127.384357, 268.734196)"><g><path d="M 1.625 -10.5 C 1.625 -12.582031 2.054688 -14.4375 2.921875 -16.0625 C 3.796875 -17.695312 4.992188 -18.972656 6.515625 -19.890625 C 8.046875 -20.804688 9.765625 -21.265625 11.671875 -21.265625 C 14.066406 -21.265625 16.082031 -20.703125 17.71875 -19.578125 C 19.363281 -18.460938 20.566406 -16.894531 21.328125 -14.875 L 19.765625 -14.875 C 19.171875 -16.476562 18.175781 -17.742188 16.78125 -18.671875 C 15.394531 -19.597656 13.691406 -20.0625 11.671875 -20.0625 C 10.046875 -20.0625 8.570312 -19.675781 7.25 -18.90625 C 5.9375 -18.144531 4.898438 -17.035156 4.140625 -15.578125 C 3.378906 -14.128906 3 -12.4375 3 -10.5 C 3 -8.582031 3.378906 -6.90625 4.140625 -5.46875 C 4.898438 -4.039062 5.9375 -2.9375 7.25 -2.15625 C 8.570312 -1.375 10.046875 -0.984375 11.671875 -0.984375 C 13.691406 -0.984375 15.394531 -1.445312 16.78125 -2.375 C 18.175781 -3.3125 19.171875 -4.582031 19.765625 -6.1875 L 21.328125 -6.1875 C 20.566406 -4.164062 19.363281 -2.59375 17.71875 -1.46875 C 16.082031 -0.351562 14.066406 0.203125 11.671875 0.203125 C 9.765625 0.203125 8.046875 -0.25 6.515625 -1.15625 C 4.992188 -2.0625 3.796875 -3.328125 2.921875 -4.953125 C 2.054688 -6.585938 1.625 -8.4375 1.625 -10.5 Z M 1.625 -10.5 "/></g></g></g><g fill="#4a7c59" fill-opacity="1"><g transform="translate(150.484335, 268.734196)"><g><path d="M 13.828125 0 L 8.4375 -8.96875 L 3.8125 -8.96875 L 3.8125 0 L 2.453125 0 L 2.453125 -21.0625 L 8.25 -21.0625 C 10.59375 -21.0625 12.347656 -20.507812 13.515625 -19.40625 C 14.679688 -18.3125 15.265625 -16.851562 15.265625 -15.03125 C 15.265625 -13.40625 14.8125 -12.066406 13.90625 -11.015625 C 13 -9.972656 11.675781 -9.332031 9.9375 -9.09375 L 15.453125 0 Z M 3.8125 -10.109375 L 8.3125 -10.109375 C 10.164062 -10.109375 11.550781 -10.554688 12.46875 -11.453125 C 13.394531 -12.359375 13.859375 -13.550781 13.859375 -15.03125 C 13.859375 -18.25 11.988281 -19.859375 8.25 -19.859375 L 3.8125 -19.859375 Z M 3.8125 -10.109375 "/></g></g></g><g fill="#4a7c59" fill-opacity="1"><g transform="translate(167.314313, 268.734196)"><g><path d="M 3.8125 -21.0625 L 3.8125 0 L 2.453125 0 L 2.453125 -21.0625 Z M 3.8125 -21.0625 "/></g></g></g><g fill="#4a7c59" fill-opacity="1"><g transform="translate(173.614308, 268.734196)"><g><path d="M 8.546875 0.203125 C 7.191406 0.203125 6.003906 -0.0351562 4.984375 -0.515625 C 3.960938 -0.992188 3.164062 -1.640625 2.59375 -2.453125 C 2.019531 -3.273438 1.695312 -4.1875 1.625 -5.1875 L 3.03125 -5.1875 C 3.1875 -4.09375 3.695312 -3.113281 4.5625 -2.25 C 5.4375 -1.382812 6.765625 -0.953125 8.546875 -0.953125 C 9.585938 -0.953125 10.492188 -1.140625 11.265625 -1.515625 C 12.035156 -1.898438 12.628906 -2.421875 13.046875 -3.078125 C 13.472656 -3.742188 13.6875 -4.476562 13.6875 -5.28125 C 13.6875 -6.300781 13.4375 -7.109375 12.9375 -7.703125 C 12.445312 -8.304688 11.835938 -8.757812 11.109375 -9.0625 C 10.378906 -9.363281 9.394531 -9.679688 8.15625 -10.015625 C 6.800781 -10.378906 5.707031 -10.738281 4.875 -11.09375 C 4.039062 -11.457031 3.335938 -12.015625 2.765625 -12.765625 C 2.203125 -13.515625 1.921875 -14.539062 1.921875 -15.84375 C 1.921875 -16.84375 2.1875 -17.753906 2.71875 -18.578125 C 3.25 -19.410156 4.003906 -20.066406 4.984375 -20.546875 C 5.960938 -21.023438 7.09375 -21.265625 8.375 -21.265625 C 10.226562 -21.265625 11.722656 -20.804688 12.859375 -19.890625 C 14.003906 -18.972656 14.6875 -17.84375 14.90625 -16.5 L 13.46875 -16.5 C 13.351562 -17.039062 13.085938 -17.585938 12.671875 -18.140625 C 12.265625 -18.703125 11.6875 -19.164062 10.9375 -19.53125 C 10.1875 -19.90625 9.289062 -20.09375 8.25 -20.09375 C 6.851562 -20.09375 5.671875 -19.707031 4.703125 -18.9375 C 3.742188 -18.175781 3.265625 -17.15625 3.265625 -15.875 C 3.265625 -14.851562 3.515625 -14.035156 4.015625 -13.421875 C 4.515625 -12.816406 5.128906 -12.359375 5.859375 -12.046875 C 6.585938 -11.734375 7.570312 -11.414062 8.8125 -11.09375 C 10.195312 -10.71875 11.289062 -10.351562 12.09375 -10 C 12.90625 -9.65625 13.597656 -9.109375 14.171875 -8.359375 C 14.742188 -7.609375 15.03125 -6.59375 15.03125 -5.3125 C 15.03125 -4.375 14.78125 -3.484375 14.28125 -2.640625 C 13.78125 -1.796875 13.046875 -1.109375 12.078125 -0.578125 C 11.109375 -0.0546875 9.929688 0.203125 8.546875 0.203125 Z M 8.546875 0.203125 "/></g></g></g><g fill="#4a7c59" fill-opacity="1"><g transform="translate(190.234286, 268.734196)"><g><path d="M 14.09375 -21.0625 L 14.09375 -19.921875 L 8.09375 -19.921875 L 8.09375 0 L 6.75 0 L 6.75 -19.921875 L 0.75 -19.921875 L 0.75 -21.0625 Z M 14.09375 -21.0625 "/></g></g></g><g fill="#4a7c59" fill-opacity="1"><g transform="translate(205.084276, 268.734196)"><g><path d="M 14.40625 -5.40625 L 4.40625 -5.40625 L 2.40625 0 L 0.9375 0 L 8.671875 -20.578125 L 10.171875 -20.578125 L 17.875 0 L 16.40625 0 Z M 13.984375 -6.546875 L 9.421875 -18.8125 L 4.828125 -6.546875 Z M 6 -22.46875 C 6.101562 -23.226562 6.347656 -23.816406 6.734375 -24.234375 C 7.128906 -24.648438 7.628906 -24.859375 8.234375 -24.859375 C 8.566406 -24.859375 8.863281 -24.789062 9.125 -24.65625 C 9.382812 -24.53125 9.675781 -24.335938 10 -24.078125 C 10.300781 -23.835938 10.554688 -23.660156 10.765625 -23.546875 C 10.972656 -23.441406 11.226562 -23.390625 11.53125 -23.390625 C 11.863281 -23.390625 12.148438 -23.507812 12.390625 -23.75 C 12.628906 -23.988281 12.78125 -24.328125 12.84375 -24.765625 L 13.75 -24.765625 C 13.6875 -24.046875 13.441406 -23.472656 13.015625 -23.046875 C 12.597656 -22.617188 12.09375 -22.40625 11.5 -22.40625 C 11.113281 -22.40625 10.785156 -22.472656 10.515625 -22.609375 C 10.242188 -22.753906 9.941406 -22.957031 9.609375 -23.21875 C 9.328125 -23.4375 9.085938 -23.597656 8.890625 -23.703125 C 8.691406 -23.816406 8.460938 -23.875 8.203125 -23.875 C 7.460938 -23.875 7.03125 -23.40625 6.90625 -22.46875 Z M 6 -22.46875 "/></g></g></g><g fill="#4a7c59" fill-opacity="1"><g transform="translate(223.894253, 268.734196)"><g><path d="M 11.84375 0.234375 C 9.90625 0.234375 8.15625 -0.21875 6.59375 -1.125 C 5.039062 -2.03125 3.820312 -3.300781 2.9375 -4.9375 C 2.0625 -6.582031 1.625 -8.4375 1.625 -10.5 C 1.625 -12.582031 2.0625 -14.4375 2.9375 -16.0625 C 3.820312 -17.695312 5.039062 -18.96875 6.59375 -19.875 C 8.15625 -20.78125 9.90625 -21.234375 11.84375 -21.234375 C 13.789062 -21.234375 15.539062 -20.78125 17.09375 -19.875 C 18.65625 -18.96875 19.875 -17.695312 20.75 -16.0625 C 21.632812 -14.4375 22.078125 -12.582031 22.078125 -10.5 C 22.078125 -8.4375 21.632812 -6.582031 20.75 -4.9375 C 19.875 -3.300781 18.65625 -2.03125 17.09375 -1.125 C 15.539062 -0.21875 13.789062 0.234375 11.84375 0.234375 Z M 11.84375 -0.953125 C 13.507812 -0.953125 15.007812 -1.34375 16.34375 -2.125 C 17.6875 -2.90625 18.742188 -4.015625 19.515625 -5.453125 C 20.285156 -6.898438 20.671875 -8.582031 20.671875 -10.5 C 20.671875 -12.4375 20.285156 -14.125 19.515625 -15.5625 C 18.742188 -17.007812 17.6875 -18.117188 16.34375 -18.890625 C 15.007812 -19.671875 13.507812 -20.0625 11.84375 -20.0625 C 10.1875 -20.0625 8.6875 -19.671875 7.34375 -18.890625 C 6.007812 -18.117188 4.953125 -17.007812 4.171875 -15.5625 C 3.390625 -14.125 3 -12.4375 3 -10.5 C 3 -8.582031 3.390625 -6.898438 4.171875 -5.453125 C 4.953125 -4.015625 6.007812 -2.90625 7.34375 -2.125 C 8.6875 -1.34375 10.1875 -0.953125 11.84375 -0.953125 Z M 11.84375 -0.953125 "/></g></g></g></svg>